<svg xmlns="http://www.w3.org/2000/svg" width="360" height="96" viewBox="0 0 360 96" role="img">
  <title>SourceScan horizontal lockup</title>
  <desc>App-icon tile next to the SourceScan wordmark and a descriptive subtitle.</desc>
  <rect x="8" y="12" width="72" height="72" rx="16" fill="#1F2328"/>
  <g transform="translate(8,12) scale(0.72)">
    <path d="M30 18 H70 A8 8 0 0 1 78 26 V46 C78 64 66 78 50 84 C34 78 22 64 22 46 V26 A8 8 0 0 1 30 18 Z" fill="#F6F8FA"/>
    <path d="M45 38 L37 50 L45 62" fill="none" stroke="#1F2328" stroke-width="5.5" stroke-linecap="round" stroke-linejoin="round"/>
    <path d="M55 38 L63 50 L55 62" fill="none" stroke="#1F2328" stroke-width="5.5" stroke-linecap="round" stroke-linejoin="round"/>
    <path d="M53 37 L47 63" fill="none" stroke="#2DA44E" stroke-width="5.5" stroke-linecap="round"/>
  </g>
  <text x="96" y="52" font-family="-apple-system, BlinkMacSystemFont, 'Segoe UI', Helvetica, Arial, sans-serif" font-weight="700" font-size="34"><tspan fill="#1F2328">Source</tspan><tspan fill="#2DA44E">Scan</tspan></text>
  <text x="98" y="74" font-family="-apple-system, BlinkMacSystemFont, 'Segoe UI', Helvetica, Arial, sans-serif" font-weight="400" font-size="13" fill="#57606A">Secret &amp; PII source code scanner</text>
</svg>
